<svg width="88" height="78" viewBox="0 0 88 78" fill="none" xmlns="http://www.w3.org/2000/svg">
<path d="M19.7806 57.82L77.2155 76.9807L76.7963 10.2703L19.7806 57.82Z" fill="#7000FF"/>
<path d="M45.0602 78L0 0L68 13.8125L45.0602 78Z" fill="#FF005C"/>
<path d="M19.796 29.982C20.876 29.982 21.848 30.078 22.712 30.27C23.576 30.45 24.392 30.708 25.16 31.044L24.08 33.528C23.468 33.252 22.814 33.054 22.118 32.934C21.434 32.802 20.732 32.736 20.012 32.736C17.444 32.736 16.16 33.762 16.16 35.814V39.45H22.568L22.19 42.078H16.16V57H12.722V42.078H8.276V39.45H12.722V35.832C12.722 34.656 13.022 33.63 13.622 32.754C14.234 31.878 15.068 31.2 16.124 30.72C17.192 30.228 18.416 29.982 19.796 29.982Z" fill="black"/>
<path d="M34.5239 44.4C34.5239 46.812 34.7939 48.912 35.3339 50.7C35.8739 52.488 36.7019 54.138 37.8179 55.65C38.9459 57.15 40.3679 58.692 42.0839 60.276L40.2119 62.148C38.2679 60.552 36.5999 58.908 35.2079 57.216C33.8279 55.524 32.7659 53.646 32.0219 51.582C31.2899 49.506 30.9239 47.112 30.9239 44.4C30.9239 41.688 31.2899 39.3 32.0219 37.236C32.7659 35.16 33.8279 33.276 35.2079 31.584C36.5999 29.892 38.2679 28.248 40.2119 26.652L42.0839 28.524C40.3679 30.096 38.9519 31.632 37.8359 33.132C36.7199 34.632 35.8859 36.282 35.3339 38.082C34.7939 39.87 34.5239 41.976 34.5239 44.4Z" fill="black"/>
<path d="M83.4198 44.4C83.4198 41.976 83.1438 39.87 82.5918 38.082C82.0518 36.282 81.2238 34.632 80.1078 33.132C78.9918 31.632 77.5758 30.096 75.8598 28.524L77.7318 26.652C79.6758 28.248 81.3378 29.892 82.7178 31.584C84.1098 33.276 85.1718 35.16 85.9038 37.236C86.6478 39.3 87.0198 41.688 87.0198 44.4C87.0198 47.112 86.6478 49.506 85.9038 51.582C85.1718 53.646 84.1098 55.524 82.7178 57.216C81.3378 58.908 79.6758 60.552 77.7318 62.148L75.8598 60.276C77.5758 58.692 78.9918 57.15 80.1078 55.65C81.2358 54.138 82.0698 52.488 82.6098 50.7C83.1498 48.912 83.4198 46.812 83.4198 44.4Z" fill="black"/>
</svg>
