<?xml version="1.0" standalone="no"?>
<!DOCTYPE svg PUBLIC "-//W3C//DTD SVG 20010904//EN"
 "http://www.w3.org/TR/2001/REC-SVG-20010904/DTD/svg10.dtd">
<svg version="1.0" xmlns="http://www.w3.org/2000/svg"
 width="260.000000pt" height="260.000000pt" viewBox="0 0 260.000000 260.000000"
 preserveAspectRatio="xMidYMid meet">
<metadata>
Created by potrace 1.14, written by Peter Selinger 2001-2017
</metadata>
<g transform="translate(0.000000,260.000000) scale(0.100000,-0.100000)"
fill="#000000" stroke="none">
<path d="M815 1916 c-71 -18 -124 -45 -165 -86 -61 -61 -74 -101 -78 -227 l-4
-113 -94 0 -94 0 0 -90 0 -90 95 0 95 0 0 -325 0 -325 130 0 130 0 0 325 0
325 128 0 129 0 11 78 c7 42 12 83 12 90 0 9 -35 12 -140 12 l-140 0 0 91 c0
86 1 92 28 118 18 19 43 30 73 35 47 7 157 -6 205 -24 15 -6 28 -9 29 -8 6 11
65 159 65 166 0 5 -24 16 -52 25 -119 37 -268 46 -363 23z"/>
<path d="M1326 1538 c4 -7 66 -104 137 -216 l129 -203 -151 -227 -151 -227
137 -3 c75 -1 140 1 144 5 4 4 44 79 90 166 l82 159 86 -164 86 -163 148 -3
c81 -1 147 -1 147 2 0 2 -68 108 -150 235 l-151 231 107 173 c59 94 118 189
131 210 l23 37 -139 0 -139 0 -39 -82 c-21 -46 -52 -112 -69 -148 l-31 -65
-71 148 -71 147 -146 0 c-114 0 -145 -3 -139 -12z"/>
</g>
</svg>
