<svg width="256" height="256" viewBox="0 0 256 256" fill="none" xmlns="http://www.w3.org/2000/svg">
<rect width="256" height="256" fill="white"/>
<path d="M43.4185 114.267C46.3418 111.223 49.7707 109.7 53.7051 109.7C56.8043 109.7 59.1781 110.603 60.8266 112.408C62.4971 114.191 63.3323 116.735 63.3323 120.041V145.484H52.9138V122.911C52.9138 121.498 52.8039 120.389 52.5841 119.584C52.3863 118.779 52.0456 118.203 51.5621 117.855C51.0785 117.486 50.4081 117.301 49.5509 117.301C48.4959 117.301 47.4738 117.66 46.4847 118.377C45.4956 119.095 44.4735 120.139 43.4185 121.509V145.484H33V97.0765L43.4185 96.0652V114.267Z" fill="black"/>
<path d="M93.9847 145.484C92.4021 150.16 90.0503 153.672 86.9291 156.02C83.808 158.391 79.6208 159.717 74.3676 160L73.1807 152.726C75.4666 152.443 77.3129 152.019 78.7196 151.454C80.1483 150.91 81.2913 150.16 82.1485 149.203C83.0277 148.268 83.797 147.028 84.4564 145.484H80.8956L69.7848 110.842H80.7967L87.5885 138.895L94.9738 110.842H105.656L93.9847 145.484Z" fill="black"/>
<path d="M132.022 96L142.441 97.0765V145.484H133.209L132.682 141.668C131.627 143.146 130.286 144.343 128.659 145.256C127.033 146.147 125.143 146.593 122.989 146.593C120.153 146.593 117.768 145.843 115.834 144.343C113.922 142.82 112.493 140.678 111.548 137.916C110.603 135.133 110.13 131.849 110.13 128.065C110.13 124.521 110.691 121.356 111.812 118.573C112.955 115.789 114.57 113.615 116.658 112.049C118.768 110.483 121.241 109.7 124.077 109.7C127.22 109.7 129.868 110.766 132.022 112.897V96ZM126.879 117.235C124.989 117.235 123.516 118.116 122.461 119.878C121.406 121.617 120.878 124.368 120.878 128.13C120.878 132.154 121.34 134.981 122.263 136.612C123.208 138.221 124.549 139.025 126.286 139.025C128.484 139.025 130.396 137.688 132.022 135.013V120.073C131.253 119.138 130.462 118.432 129.648 117.953C128.835 117.475 127.912 117.235 126.879 117.235Z" fill="black"/>
<path d="M178.401 109.798C180.489 109.798 182.413 110.146 184.171 110.842L182.226 125.325H175.698V118.932C173.764 119.28 172.049 120.323 170.555 122.063C169.06 123.803 167.884 125.999 167.027 128.652V138.569H173.95V145.484H151.992V138.569H156.608V117.692H151.992V110.842H164.554L166.466 118.638C167.719 115.659 169.313 113.441 171.247 111.984C173.203 110.527 175.588 109.798 178.401 109.798Z" fill="black"/>
<path d="M220.692 135.503C220.692 136.786 220.868 137.732 221.22 138.34C221.571 138.928 222.165 139.373 223 139.678L220.857 146.463C218.725 146.267 216.956 145.81 215.549 145.093C214.164 144.353 213.076 143.288 212.285 141.896C210.988 143.44 209.307 144.614 207.24 145.419C205.196 146.202 203.031 146.593 200.745 146.593C198.371 146.593 196.283 146.137 194.481 145.223C192.701 144.288 191.327 143.005 190.36 141.374C189.393 139.721 188.909 137.829 188.909 135.698C188.909 133.219 189.579 131.099 190.92 129.337C192.261 127.576 194.206 126.239 196.756 125.325C199.306 124.39 202.372 123.923 205.955 123.923H210.669V122.618C210.669 119.073 208.361 117.301 203.746 117.301C202.581 117.301 201.108 117.464 199.328 117.79C197.569 118.116 195.844 118.562 194.151 119.127L191.745 112.277C193.943 111.451 196.261 110.82 198.701 110.385C201.141 109.929 203.372 109.7 205.394 109.7C210.537 109.7 214.373 110.733 216.901 112.799C219.428 114.865 220.692 117.91 220.692 121.933V135.503ZM204.339 139.221C205.526 139.221 206.724 138.884 207.933 138.21C209.142 137.514 210.054 136.579 210.669 135.405V129.794H208.098C205.24 129.794 203.119 130.229 201.734 131.099C200.35 131.969 199.657 133.263 199.657 134.981C199.657 136.329 200.064 137.373 200.877 138.112C201.712 138.852 202.866 139.221 204.339 139.221Z" fill="black"/>
</svg>
