<svg xmlns="http://www.w3.org/2000/svg" x="0px" y="0px" viewBox="0 0 1024 1024" style="enable-background:new 0 0 1024 1024;" aria-hidden="true">
  <title>Processing Foundation Logo</title>
  <circle fill="#006699" cx="512" cy="512" r="505.6"></circle>
  <g>
    <path fill="#ffffff" d="M487.1,228.9c-37.6,0.9-72.5,2.1-99.5,2.1h-95.2v55.8c28.5,6.6,62.4,12,95.2,14.2v429.1
      c-32.8,2.2-66.8,7.7-95.2,14.2v55.8h278.8l11.3-55.8c-28.5-6.6-62.4-12-95.2-14.2L487.1,228.9z"></path>
    <path fill="#ffffff" d="M563.8,227.8c-0.7,0-1.3,0-2,0v74.6c77.7,3.1,118,42.9,118,106c0,70.9-40.6,111-118,115.6v73.4
      c139.9-5.6,223.1-81.8,223.1-196.7C784.9,290.2,701.7,227.8,563.8,227.8"></path>
  </g>
</svg>