<svg width="1000" height="1000" viewBox="0 0 1000 1000" fill="none" xmlns="http://www.w3.org/2000/svg">
<path d="M370.029 259.331C393.572 259.331 414.872 261.2 432.809 264.937C451.12 268.674 467.189 273.532 481.389 279.884L454.857 343.038C443.646 338.928 432.062 335.564 420.104 333.696C408.146 331.827 396.561 330.706 384.977 330.706C365.919 330.706 352.092 334.07 343.871 341.17C335.65 348.27 331.539 359.854 331.539 375.923V419.645H437.667L426.83 486.909H331.539V724.95H235.127V486.535H166.741V419.271H235.127V372.186C235.127 350.886 240.358 331.454 250.448 314.638C260.538 297.822 275.859 284.369 295.665 274.279C315.844 264.563 340.508 259.331 370.029 259.331Z" fill="black"/>
<path d="M606.201 724.576H501.193L612.927 553.426L511.657 399.092H620.027L671.97 503.351L722.418 399.092H825.557L729.892 550.063L841.999 724.95H732.134L667.86 603.127L606.201 724.576Z" fill="black"/>
</svg>
