<svg width="1000" height="319" viewBox="0 0 1000 319" fill="none" xmlns="http://www.w3.org/2000/svg">
<rect width="1000" height="319" fill="black"/>
<g clip-path="url(#clip0_855_6888)">
<path d="M148.076 90.7426C154.866 90.7426 161.009 91.2814 166.182 92.3591C171.462 93.4368 176.097 94.8379 180.192 96.6699L172.54 114.883C169.307 113.698 165.966 112.728 162.517 112.189C159.069 111.65 155.728 111.327 152.387 111.327C146.891 111.327 142.903 112.297 140.532 114.344C138.161 116.392 136.976 119.733 136.976 124.367V136.976H167.583L164.457 156.375H136.976V225.024H109.171V156.267H89.4492V136.868H109.171V123.289C109.171 117.146 110.68 111.542 113.59 106.693C116.5 101.843 120.918 97.9632 126.63 95.0534C132.45 92.2514 139.562 90.7426 148.076 90.7426Z" fill="white"/>
<path d="M216.187 224.917H185.903L218.127 175.558L188.921 131.049H220.174L235.154 161.117L249.703 131.049H279.448L251.859 174.588L284.19 225.024H252.505L233.969 189.891L216.187 224.917Z" fill="white"/>
<path d="M334.196 163.056C334.196 170.385 334.735 177.067 335.92 183.209C336.998 189.352 338.938 195.388 341.524 201.099C344.111 206.919 347.559 212.739 351.87 218.774C356.181 224.809 361.462 231.167 367.928 238.065L351.655 252.721C342.386 244.746 334.304 236.232 327.406 227.395C320.617 218.45 315.336 208.751 311.564 198.19C307.9 187.628 305.96 175.881 305.96 162.949C305.96 150.016 307.792 138.269 311.564 127.708C315.228 117.146 320.509 107.447 327.406 98.502C334.196 89.5571 342.279 81.151 351.655 73.176L367.928 87.8328C360.061 96.4544 353.594 104.645 348.637 112.404C343.68 120.164 340.015 128.139 337.752 136.222C335.381 144.412 334.196 153.357 334.196 163.056Z" fill="white"/>
<path d="M434.53 90.9581V140.317C442.398 132.019 451.558 127.923 462.12 127.923C470.526 127.923 476.884 130.402 481.303 135.252C485.721 140.101 487.984 146.999 487.984 155.944V224.917H460.072V163.703C460.072 157.991 459.425 154.112 458.132 151.848C456.839 149.585 454.468 148.507 451.019 148.507C448.109 148.507 445.307 149.477 442.613 151.525C439.919 153.573 437.225 156.375 434.638 159.931V224.917H406.726V93.7602L434.53 90.9581Z" fill="white"/>
<path d="M591.766 197.866C591.766 201.423 592.305 204.009 593.275 205.518C594.245 207.134 595.862 208.32 598.017 209.182L592.305 227.611C586.809 227.072 582.067 225.887 578.295 223.947C574.523 222.007 571.506 219.097 569.35 215.217C565.794 219.528 561.16 222.761 555.556 224.809C549.952 226.856 544.24 227.934 538.42 227.934C528.721 227.934 521.069 225.132 515.25 219.636C509.43 214.14 506.628 207.027 506.628 198.405C506.628 188.167 510.615 180.3 518.59 174.803C526.565 169.307 537.774 166.505 552.323 166.505H564.932V162.949C564.932 153.357 558.789 148.507 546.395 148.507C543.378 148.507 539.498 148.939 534.864 149.801C530.122 150.663 525.38 151.848 520.746 153.465L514.28 134.928C520.315 132.665 526.673 130.941 533.247 129.755C539.821 128.57 545.749 128.031 550.922 128.031C564.932 128.031 575.278 130.833 581.959 136.545C588.641 142.257 591.982 150.447 591.982 161.224V197.866H591.766ZM547.904 207.997C550.921 207.997 554.047 207.134 557.388 205.302C560.729 203.47 563.207 200.992 564.932 197.651V182.455H558.034C550.275 182.455 544.563 183.641 540.899 186.012C537.235 188.382 535.403 191.939 535.403 196.465C535.403 200.022 536.48 202.824 538.743 204.871C540.899 206.919 544.024 207.997 547.904 207.997Z" fill="white"/>
<path d="M656.538 207.997C661.172 207.997 664.944 207.242 667.853 205.733C670.763 204.225 672.164 202.069 672.164 199.052C672.164 197.004 671.625 195.388 670.44 193.987C669.362 192.585 667.207 191.292 663.974 190.107C660.741 188.921 656.106 187.413 649.856 185.688C641.234 183.425 634.229 180.084 628.841 175.773C623.452 171.463 620.758 165.212 620.758 156.806C620.758 148.4 624.206 141.502 631.212 136.006C638.217 130.51 648.239 127.816 661.495 127.816C669.901 127.816 677.122 128.893 683.372 131.049C689.623 133.204 695.011 135.898 699.538 139.239L688.438 155.728C684.558 153.357 680.355 151.417 675.828 149.908C671.302 148.507 666.883 147.753 662.249 147.753C653.304 147.753 648.778 150.124 648.778 154.974C648.778 156.59 649.317 157.883 650.502 159.069C651.688 160.254 653.843 161.44 656.969 162.625C660.202 163.811 664.836 165.32 670.979 167.044C677.014 168.768 682.295 170.708 686.821 172.971C691.347 175.234 694.796 178.252 697.275 181.916C699.753 185.688 700.939 190.646 700.939 196.681C700.939 203.47 698.891 209.29 694.796 213.924C690.701 218.558 685.312 222.007 678.63 224.27C671.949 226.533 664.513 227.719 656.538 227.719C647.485 227.719 639.402 226.425 632.505 223.839C625.5 221.252 619.572 217.804 614.723 213.601L628.733 197.866C632.397 200.668 636.492 203.039 641.126 204.979C645.976 207.027 651.041 207.997 656.538 207.997Z" fill="white"/>
<path d="M752.883 90.9581V140.317C760.75 132.019 769.911 127.923 780.472 127.923C788.878 127.923 795.237 130.402 799.655 135.252C804.074 140.101 806.337 146.999 806.337 155.944V224.917H778.424V163.703C778.424 157.991 777.778 154.112 776.485 151.848C775.191 149.585 772.82 148.507 769.372 148.507C766.462 148.507 763.66 149.477 760.966 151.525C758.271 153.573 755.577 156.375 752.991 159.931V224.917H725.078V93.7602L752.883 90.9581Z" fill="white"/>
<path d="M878.759 163.056C878.759 153.357 877.574 144.412 875.31 136.329C873.047 128.247 869.383 120.272 864.426 112.512C859.468 104.753 853.11 96.5622 845.135 87.9405L861.408 73.2838C870.676 81.2588 878.759 89.7726 885.656 98.6098C892.446 107.555 897.727 117.254 901.499 127.816C905.163 138.377 907.103 150.124 907.103 163.056C907.103 175.989 905.271 187.736 901.499 198.297C897.834 208.859 892.554 218.558 885.656 227.503C878.867 236.448 870.784 244.854 861.408 252.829L845.135 238.172C851.493 231.275 856.882 224.809 861.192 218.881C865.503 212.846 868.952 207.027 871.538 201.207C874.125 195.387 875.957 189.46 877.143 183.317C878.22 177.067 878.759 170.385 878.759 163.056Z" fill="white"/>
</g>
<defs>
<clipPath id="clip0_855_6888">
<rect width="817.545" height="179.545" fill="white" transform="translate(89.4492 73.2838)"/>
</clipPath>
</defs>
</svg>
